<svg xmlns="http://www.w3.org/2000/svg" xmlns:xlink="http://www.w3.org/1999/xlink" width="200" height="200" viewBox="0 0 200 200">
  <defs>
    <linearGradient id="linear-gradient" x1="0.5" y1="1" x2="0.5" gradientUnits="objectBoundingBox">
      <stop offset="0" stop-color="gray" stop-opacity="0.251"/>
      <stop offset="0.54" stop-color="gray" stop-opacity="0.122"/>
      <stop offset="1" stop-color="gray" stop-opacity="0.102"/>
    </linearGradient>
  </defs>
  <g id="avatar" transform="translate(1033.759 -1837.241)">
    <g id="undraw_profile_pic_ic5t" transform="translate(-1034.018 1836.982)">
      <g id="Group_1" data-name="Group 1" transform="translate(0 0)" opacity="0.5">
        <circle id="Ellipse_1" data-name="Ellipse 1" cx="100" cy="100" r="100" transform="translate(0.259 0.259)" fill="url(#linear-gradient)"/>
      </g>
      <circle id="Ellipse_2" data-name="Ellipse 2" cx="98.009" cy="98.009" r="98.009" transform="translate(2.324 1.489)" fill="#f5f5f5"/>
      <path id="Path_1" data-name="Path 1" d="M461.055,698.824A97.539,97.539,0,0,0,514.929,682.7c-3.612-19.739-17.356-20.862-17.356-20.862H421.781s-12.97,1.064-17.021,19.221a97.558,97.558,0,0,0,56.3,17.764Z" transform="translate(-360.632 -500.93)" fill="#6c63ff"/>
      <path id="Path_13" data-name="Path 13" d="M47.308,0A47.308,47.308,0,1,1,0,47.308,47.308,47.308,0,0,1,47.308,0Z" transform="translate(52.077 50.127)" fill="#4a312c"/>
      <path id="Path_2" data-name="Path 2" d="M293.15,476.92h30.311v24.25a15.156,15.156,0,0,1-15.15,15.156h0a15.156,15.156,0,0,1-15.156-15.156V476.92Z" transform="translate(-209.034 -340.085)" opacity="0.1"/>
      <path id="Path_3" data-name="Path 3" d="M294.123,473h28.4a.961.961,0,0,1,.961.961V497.25a15.157,15.157,0,0,1-15.169,15.159h.005a15.156,15.156,0,0,1-15.156-15.156V473.961a.961.961,0,0,1,.957-.961Z" transform="translate(-209.046 -337.289)" fill="#ffdbb4"/>
      <path id="Path_4" data-name="Path 4" d="M544.34,608.756a43.625,43.625,0,0,0,30.311.083v-3.73H544.34Z" transform="translate(-460.17 -460.474)" opacity="0.1"/>
      <circle id="Ellipse_4" data-name="Ellipse 4" cx="43.448" cy="43.448" r="43.448" transform="translate(55.936 63.415)" fill="#ffdbb4"/>
      <path id="Path_5" data-name="Path 5" d="M489.49,308.525s18.312,37.168,69.964,15.583l-12.026-18.856L526.11,297.6Z" transform="translate(-421.055 -241.183)" opacity="0.1"/>
      <path id="Path_6" data-name="Path 6" d="M489.49,306.61s18.312,37.168,69.964,15.578l-12.026-18.859L526.11,295.68Z" transform="translate(-421.055 -239.813)" fill="#4a312c"/>
      <path id="Path_7" data-name="Path 7" d="M486.675,250.472a25.1,25.1,0,0,1,6.222-10.118c8.546-8.449,22.558-10.23,29.743-19.863a5.625,5.625,0,0,1-2.582,7.932c6.885-.047,14.863-.648,18.756-6.311a12.878,12.878,0,0,1-2.172,13.6c6.1.285,12.622,4.418,13.007,10.514.264,4.062-2.3,7.906-5.62,10.236s-7.376,3.4-11.349,4.274C521.081,263.3,479.1,274.016,486.675,250.472Z" transform="translate(-418.401 -186.193)" fill="#4a312c"/>
      <ellipse id="Ellipse_5" data-name="Ellipse 5" cx="4.042" cy="7.579" rx="4.042" ry="7.579" transform="translate(51.876 99.243)" fill="#ffdbb4"/>
      <path id="Path_12" data-name="Path 12" d="M4.042,0c2.23,0,4.042,3.393,4.042,7.579s-1.81,7.579-4.042,7.579S0,11.765,0,7.579,1.81,0,4.042,0Z" transform="translate(138.784 99.243)" fill="#ffdbb4"/>
    </g>
    <path id="Path_8" data-name="Path 8" d="M11.5,0c9.095,0,11.035,6.768,11.42,10.59a13.9,13.9,0,0,1,.053,2.32H.024S-1.063,0,11.5,0Z" transform="translate(-922.381 1977.57) rotate(180)" fill="#4c4135"/>
    <path id="Rectangle_2" data-name="Rectangle 2" d="M0,0H19.929a3.322,3.322,0,0,1-3.322,3.322H3.322A3.322,3.322,0,0,1,0,0Z" transform="translate(-943.845 1964.641)" fill="#fff"/>
    <path id="Path_9" data-name="Path 9" d="M-1732.85,2843.8Z" transform="translate(790.407 -869.729)" fill="none" stroke="#707070" stroke-width="1"/>
    <path id="Path_10" data-name="Path 10" d="M8.3,0c4.585,0,8.3,1.221,8.3,2.727S12.89,5.985,8.3,5.985,0,4.234,0,2.727,3.717,0,8.3,0Z" transform="translate(-942.182 1971.585)" fill="#ff4f6d"/>
    <path id="Path_11" data-name="Path 11" d="M6.716,0C13.4,0,13.2,4.424,13.2,4.424H0S.03,0,6.716,0Z" transform="translate(-927.282 1955.314) rotate(180)" fill="#d6b897"/>
    <path id="Path_15" data-name="Path 15" d="M-2514.094,2764.879a13.818,13.818,0,0,0-8.67-3.423,14.439,14.439,0,0,0-9.4,3.423,60.975,60.975,0,0,1,9.4-.89A46.8,46.8,0,0,1-2514.094,2764.879Z" transform="translate(1566.707 -827.758)" fill="#665748" stroke="#665748" stroke-linecap="round" stroke-linejoin="round" stroke-width="2"/>
    <path id="Path_16" data-name="Path 16" d="M-2514.094,2764.879a13.818,13.818,0,0,0-8.67-3.423,14.439,14.439,0,0,0-9.4,3.423,60.975,60.975,0,0,1,9.4-.89A46.8,46.8,0,0,1-2514.094,2764.879Z" transform="translate(1609.786 -827.758)" fill="#665748" stroke="#665748" stroke-linecap="round" stroke-linejoin="round" stroke-width="2"/>
    <path id="Path_17" data-name="Path 17" d="M-1808.16,2731.34s1.9-3,7.432-2.905,7.506,2.905,7.506,2.905" transform="translate(844.112 -786.539)" fill="none" stroke="#665748" stroke-linecap="round" stroke-linejoin="round" stroke-width="2"/>
    <path id="Path_18" data-name="Path 18" d="M-1808.16,2731.34s1.9-3,7.432-2.905,7.506,2.905,7.506,2.905" transform="translate(887.346 -786.539)" fill="none" stroke="#665748" stroke-linecap="round" stroke-linejoin="round" stroke-width="2"/>
  </g>
</svg>
