<svg width="48" height="48" viewBox="0 0 48 48" fill="none" xmlns="http://www.w3.org/2000/svg">
<g id="favicon-logo">
<path id="poly-border" d="M23.375 1.22687C23.7618 1.00358 24.2382 1.00358 24.625 1.22687L43.4096 12.0722C43.7964 12.2955 44.0346 12.7081 44.0346 13.1547V34.8453C44.0346 35.2919 43.7964 35.7045 43.4096 35.9278L24.625 46.7731C24.2383 46.9964 23.7618 46.9964 23.375 46.7731L4.59039 35.9278C4.20364 35.7045 3.96539 35.2919 3.96539 34.8453V13.1547C3.96539 12.7081 4.20364 12.2955 4.59039 12.0722L23.375 1.22687Z" stroke="url(#paint0_linear)" stroke-width="1.5"/>
<path id="logo" d="M5.784 26.16C5.784 24.5547 6.08267 23.1453 6.68 21.932C7.296 20.7187 8.12667 19.7853 9.172 19.132C10.2173 18.4787 11.384 18.152 12.672 18.152C13.7733 18.152 14.7347 18.376 15.556 18.824C16.396 19.272 17.04 19.86 17.488 20.588V18.376H22.276V34H17.488V31.788C17.0213 32.516 16.368 33.104 15.528 33.552C14.7067 34 13.7453 34.224 12.644 34.224C11.3747 34.224 10.2173 33.8973 9.172 33.244C8.12667 32.572 7.296 31.6293 6.68 30.416C6.08267 29.184 5.784 27.7653 5.784 26.16ZM17.488 26.188C17.488 24.9933 17.152 24.0507 16.48 23.36C15.8267 22.6693 15.024 22.324 14.072 22.324C13.12 22.324 12.308 22.6693 11.636 23.36C10.9827 24.032 10.656 24.9653 10.656 26.16C10.656 27.3547 10.9827 28.3067 11.636 29.016C12.308 29.7067 13.12 30.052 14.072 30.052C15.024 30.052 15.8267 29.7067 16.48 29.016C17.152 28.3253 17.488 27.3827 17.488 26.188ZM32.8519 34.196C31.4146 34.196 30.1266 33.9627 28.9879 33.496C27.8492 33.0293 26.9346 32.3387 26.2439 31.424C25.5719 30.5093 25.2172 29.408 25.1799 28.12H30.2759C30.3506 28.848 30.6026 29.408 31.0319 29.8C31.4612 30.1733 32.0212 30.36 32.7119 30.36C33.4212 30.36 33.9812 30.2013 34.3919 29.884C34.8026 29.548 35.0079 29.0907 35.0079 28.512C35.0079 28.0267 34.8399 27.6253 34.5039 27.308C34.1866 26.9907 33.7852 26.7293 33.2999 26.524C32.8332 26.3187 32.1612 26.0853 31.2839 25.824C30.0146 25.432 28.9786 25.04 28.1759 24.648C27.3732 24.256 26.6826 23.6773 26.1039 22.912C25.5252 22.1467 25.2359 21.148 25.2359 19.916C25.2359 18.0867 25.8986 16.6587 27.2239 15.632C28.5492 14.5867 30.2759 14.064 32.4039 14.064C34.5692 14.064 36.3146 14.5867 37.6399 15.632C38.9652 16.6587 39.6746 18.096 39.7679 19.944H34.5879C34.5506 19.3093 34.3172 18.8147 33.8879 18.46C33.4586 18.0867 32.9079 17.9 32.2359 17.9C31.6572 17.9 31.1906 18.0587 30.8359 18.376C30.4812 18.6747 30.3039 19.1133 30.3039 19.692C30.3039 20.3267 30.6026 20.8213 31.1999 21.176C31.7972 21.5307 32.7306 21.9133 33.9999 22.324C35.2692 22.7533 36.2959 23.164 37.0799 23.556C37.8826 23.948 38.5732 24.5173 39.1519 25.264C39.7306 26.0107 40.0199 26.972 40.0199 28.148C40.0199 29.268 39.7306 30.2853 39.1519 31.2C38.5919 32.1147 37.7706 32.8427 36.6879 33.384C35.6052 33.9253 34.3266 34.196 32.8519 34.196Z" fill="url(#paint1_linear)"/>
</g>
<defs>
<linearGradient id="paint0_linear" x1="-4.5" y1="-14.5" x2="34" y2="28.5" gradientUnits="userSpaceOnUse">
<stop stop-color="#00F7FF"/>
<stop offset="1" stop-color="white"/>
</linearGradient>
<linearGradient id="paint1_linear" x1="-1.03261" y1="30.3396" x2="45.9051" y2="16.0877" gradientUnits="userSpaceOnUse">
<stop stop-color="#00F7FF"/>
<stop offset="1" stop-color="#862BFF"/>
</linearGradient>
</defs>
</svg>
